<svg width="50" height="35" viewBox="0 0 50 35" fill="none" xmlns="http://www.w3.org/2000/svg">
<path d="M5.55556 0C2.4875 0 0 2.41096 0 5.38462V29.6154C0 32.589 2.4875 35 5.55556 35H44.4444C47.5125 35 50 32.589 50 29.6154V5.38462C50 5.38462 50 0 44.4444 0H5.55556Z" fill="#63C04C"/>
<path d="M0 5.73077L50 5.73077V12.4615L0 12.4615L0 5.73077Z" fill="#292F33"/>
<path d="M5.5553 17.8461H44.4442V25.923H5.5553V17.8461Z" fill="#F4F7F9"/>
<path d="M26.3887 24.5768C24.0234 24.5768 23.1373 22.948 22.9595 22.1524C22.1998 22.2076 21.4595 22.5603 20.4526 23.1809C19.3901 23.8351 18.1859 24.5768 16.6664 24.5768C15.0039 24.5768 13.9942 23.6682 13.8887 21.8845C13.8845 21.8091 13.9414 21.6314 13.9178 21.6314C11.3373 21.6314 9.47061 24.002 9.45256 24.0262C9.18173 24.3857 8.7595 24.5768 8.33311 24.5768C8.047 24.5768 7.7595 24.492 7.51228 24.3157C6.89422 23.8755 6.7595 23.0328 7.21367 22.4337C7.32061 22.2924 9.87478 19.1922 13.8887 19.1922C16.5789 19.1922 16.7331 21.0432 16.7748 21.7337L16.7845 21.8805C17.4595 21.8347 18.1609 21.4039 18.9651 20.9072C20.2998 20.086 21.9553 19.0616 24.1734 19.6122C25.3831 19.9124 25.572 21.0001 25.6442 21.4107C25.6623 21.513 25.6887 21.6664 25.7123 21.7149C25.722 21.7149 25.9151 21.8374 26.5137 21.8899C27.6526 21.9909 28.9039 21.5143 30.2289 21.0109C31.6012 20.4885 33.0206 19.9501 34.5498 19.9501C39.2567 19.9501 41.1706 22.151 41.3734 22.4014C41.8456 22.987 41.7401 23.8324 41.1359 24.2901C40.8928 24.4745 40.6067 24.5687 40.3206 24.5768C39.8942 24.5889 39.4692 24.4112 39.1859 24.0599C39.1526 24.0235 37.8942 22.641 34.5512 22.641C33.547 22.641 32.4289 23.0651 31.2442 23.5147C29.8428 24.0478 27.8637 24.5768 26.3887 24.5768Z" fill="#8899A6"/>
</svg>
